{"title":"Woo-ri-dong-ne 2007 Our Town","uid":7575420,"size":1468442704,"categoryP":"video","categoryS":"movies","magnet":"?xt=urn:btih:cb4b60ade82a4be52dddf3b5e43f223883d7833a&amp;dn=Woo-ri-dong-ne+2007+Our+Town&amp;tr=udp%3A%2F%2Ftracker.openbittorrent.com%3A80&amp;tr=udp%3A%2F%2Fopen.demonii.com%3A1337&amp;tr=udp%3A%2F%2Ftracker.coppersurfer.tk%3A6969&amp;tr=udp%3A%2F%2Fexodus.desync.com%3A6969","seeders":0,"leechers":0,"uploader":null,"files":4,"time":1346100522,"description":"This is my first torrent here.\n\nPlease seed :)\n\nLanguage: korean AC3 5.1 + english subs ( not hardcoded).\n\n\nWoo-ri-dong-ne\n\n &lt;a href=&quot;\nhttp://www.imdb.com/title/tt1201168/&quot; rel=&quot;nofollow&quot; target=&quot;_NEW&quot;&gt;\nhttp://www.imdb.com/title/tt1201168/&lt;/a&gt;\n\n\n\n\nFormat                                   : AVI\nFormat/Info                              : Audio Video Interleave\nFile size                                : 700 MiB\nDuration                                 : 53mn 37s\nOverall bit rate                         : 1 826 Kbps\nWriting application                      : Nandub v1.0rc2\nWriting library                          : Nandub build 1852/release\n\nVideo\nID                                       : 0\nFormat                                   : MPEG-4 Visual\nFormat profile                           : Advanced Simple@L5\nFormat settings, BVOP                    : 2\nFormat settings, QPel                    : No\nFormat settings, GMC                     : No warppoints\nFormat settings, Matrix                  : Default (H.263)\nMuxing mode                              : Packed bitstream\nCodec ID                                 : XVID\nCodec ID/Hint                            : XviD\nDuration                                 : 53mn 37s\nBit rate                                 : 1 368 Kbps\nWidth                                    : 640 pixels\nHeight                                   : 352 pixels\nDisplay aspect ratio                     : 16:9\nFrame rate                               : 23.976 fps\nColor space                              : YUV\nChroma subsampling                       : 4:2:0\nBit depth                                : 8 bits\nScan type                                : Progressive\nCompression mode                         : Lossy\nBits/(Pixel*Frame)                       : 0.253\nStream size                              : 525 MiB (75%)\nWriting library                          : XviD 1.0.3 (UTC 2004-12-20)\n\nAudio\nID                                       : 1\nFormat                                   : AC-3\nFormat/Info                              : Audio Coding 3\nMode extension                           : CM (complete main)\nCodec ID                                 : 2000\nDuration                                 : 53mn 37s\nBit rate mode                            : Constant\nBit rate                                 : 448 Kbps\nChannel(s)                               : 6 channels\nChannel positions                        : Front: L C R, Side: L R, LFE\nSampling rate                            : 48.0 KHz\nBit depth                                : 16 bits\nCompression mode                         : Lossy\nStream size                              : 172 MiB (25%)\nAlignment                                : Split accross interleaves\nInterleave, duration                     : 42 ms (1.00 video frame)\nInterleave, preload duration             : 500 ms\n\n","torrent":{"xt":"urn:btih:cb4b60ade82a4be52dddf3b5e43f223883d7833a","amp;dn":"Woo-ri-dong-ne+2007+Our+Town","amp;tr":["udp%3A%2F%2Ftracker.openbittorrent.com%3A80","udp%3A%2F%2Fopen.demonii.com%3A1337","udp%3A%2F%2Ftracker.coppersurfer.tk%3A6969","udp%3A%2F%2Fexodus.desync.com%3A6969"],"infoHash":"cb4b60ade82a4be52dddf3b5e43f223883d7833a","infoHashBuffer":{"type":"Buffer","data":[203,75,96,173,232,42,75,229,45,221,243,181,228,63,34,56,131,215,131,58]},"announce":[],"urlList":[]}}